<?xml version="1.0" encoding="UTF-8"?>
<svg xmlns="http://www.w3.org/2000/svg" width="512" height="512" viewBox="0 0 64 64" role="img" aria-labelledby="title">
  <title id="title">Default event</title>
  <defs>
    <linearGradient id="g" x1="0" x2="1" y1="0" y2="1">
      <stop offset="0" stop-color="#60a5fa"/>
      <stop offset="1" stop-color="#3b82f6"/>
    </linearGradient>
  </defs>
  <rect x="2" y="8" width="60" height="46" rx="4" fill="#f8fafc" stroke="#e6eefc" stroke-width="1.5"/>
  <rect x="6" y="12" width="52" height="10" rx="2" fill="url(#g)"/>
  <rect x="10" y="30" width="8" height="8" rx="1" fill="#eef2ff"/>
  <rect x="20" y="30" width="8" height="8" rx="1" fill="#eef2ff"/>
  <rect x="30" y="30" width="8" height="8" rx="1" fill="#eef2ff"/>
  <rect x="40" y="30" width="8" height="8" rx="1" fill="#eef2ff"/>
  <g transform="translate(46,8)">
    <path d="M6 16c0 3.3-6 9-6 9s-6-5.7-6-9a6 6 0 1 1 12 0z" fill="#fff" stroke="#c7ddff"/>
    <circle cx="0" cy="6" r="2" fill="#3b82f6"/>
  </g>
  <g transform="translate(6,10)">
    <rect x="2" y="0" width="6" height="2" rx="0.5" fill="#ffffff" opacity="0.6"/>
    <rect x="18" y="0" width="6" height="2" rx="0.5" fill="#ffffff" opacity="0.6"/>
  </g>
  <text x="32" y="52" font-family="Inter, system-ui, -apple-system, 'Segoe UI', Roboto, 'Helvetica Neue'" font-size="5" fill="#475569" text-anchor="middle">No image</text>
</svg>
